<svg xmlns="http://www.w3.org/2000/svg" width="512" height="512" viewBox="0 0 512 512">
<style>
.f1{fill:#F8F9FA;stroke:#B8BEC6;stroke-width:1.6}
.f2{fill:#E2E6EB;stroke:#B8BEC6;stroke-width:1.6}
.f3{fill:#CDD3DA;stroke:#B8BEC6;stroke-width:1.6}
.dk{fill:#111}
.ln{fill:none;stroke:#111;stroke-width:3;stroke-linecap:round;stroke-linejoin:round}
.lt{fill:none;stroke:#B8BEC6;stroke-width:1.6;stroke-linecap:round;stroke-linejoin:round}
</style>

<ellipse cx="256" cy="386" rx="118" ry="30" fill="#000" opacity=".08"/>
<polygon class="f3" points="141,340 256,388 256,416 141,368"/>
<polygon class="f2" points="371,340 256,388 256,416 371,368"/>
<polygon class="f1" points="256,292 371,340 256,388 141,340"/>
<polygon fill="none" stroke="#D9DDE3" stroke-width="1.3" points="256,305 340,340 256,374 172,340"/>

<polygon class="f3" points="188,255 205,264 205,337 188,328"/><polygon class="f2" points="222,255 205,264 205,337 222,328"/><polygon class="f1" points="205,237 222,255 205,264 188,255"/>
<polygon class="f3" points="235,224 252,233 252,337 235,328"/><polygon class="f2" points="269,224 252,233 252,337 269,328"/><polygon class="f1" points="252,206 269,224 252,233 235,224"/>
<polygon class="f3" points="283,188 300,197 300,337 283,328"/><polygon fill="#393D42" stroke="#B8BEC6" stroke-width="1.6" points="317,188 300,197 300,337 317,328"/><polygon class="f1" points="300,170 317,188 300,197 283,188"/>
<line class="lt" x1="176" y1="326" x2="326" y2="326"/>
</svg>