<svg xmlns="http://www.w3.org/2000/svg" width="512" height="512" viewBox="0 0 512 512">

<style>
  .line{stroke:#111;stroke-width:3;stroke-linecap:round;stroke-linejoin:round;fill:none}
  .thin{stroke:#AEB4BC;stroke-width:1.5;stroke-linecap:round;stroke-linejoin:round;fill:none}
  .face1{fill:#F8F9FA;stroke:#B8BEC6;stroke-width:1.5}
  .face2{fill:#E4E7EB;stroke:#B8BEC6;stroke-width:1.5}
  .face3{fill:#CED4DA;stroke:#B8BEC6;stroke-width:1.5}
  .dark{fill:#111}
  .mid{fill:#555B63}
</style>


<ellipse cx="256" cy="405" rx="128" ry="34" fill="#000" opacity=".08"/>
<polygon class="face3" points="136,345 256,397 256,431 136,379"/>
<polygon class="face2" points="376,345 256,397 256,431 376,379"/>
<polygon class="face1" points="256,293 376,345 256,397 136,345"/>
<polygon fill="none" stroke="#D7DBE1" stroke-width="1.3" points="256,310 344,345 256,380 168,345"/>


<g>
  <polygon class="face3" points="196,238 225,253 225,312 196,297"/>
  <polygon class="face2" points="254,238 225,253 225,312 254,297"/>
  <polygon class="face1" points="225,208 254,238 225,253 196,238"/>
  <polygon class="face3" points="254,238 283,253 283,312 254,297"/>
  <polygon class="face2" points="312,238 283,253 283,312 312,297"/>
  <polygon class="face1" points="283,208 312,238 283,253 254,238"/>
  <polygon class="face3" points="225,190 256,206 256,270 225,254"/>
  <polygon class="face2" points="287,190 256,206 256,270 287,254"/>
  <polygon class="face1" points="256,160 287,190 256,206 225,190"/>
</g>

</svg>